<?xml version="1.0" encoding="UTF-8"?>
<svg xmlns="http://www.w3.org/2000/svg" xmlns:xlink="http://www.w3.org/1999/xlink" viewBox="0 0 96 96" width="96px" height="96px">
<g id="surface53809694">
<path style="fill-rule:nonzero;fill:rgb(0%,0%,0%);fill-opacity:1;stroke-width:1;stroke-linecap:butt;stroke-linejoin:round;stroke:rgb(80.000001%,80.000001%,80.000001%);stroke-opacity:1;stroke-miterlimit:10;" d="M 123.6268 10.753436 C 138.405741 10.753436 150.502081 22.842736 150.502081 37.621676 L 150.502081 123.6268 C 150.502081 138.405741 138.405741 150.502081 123.6268 150.502081 L 37.621676 150.502081 C 22.842736 150.502081 10.753436 138.405741 10.753436 123.6268 L 10.753436 37.621676 C 10.753436 22.842736 22.842736 10.753436 37.621676 10.753436 Z M 21.497916 37.621676 L 21.497916 123.6268 C 21.497916 132.604003 28.651514 139.750561 37.621676 139.750561 L 88.478411 139.750561 L 88.478411 96.392431 L 75.248478 96.350185 L 75.248478 79.050587 L 88.478411 79.092833 L 88.478411 66.348725 C 88.478411 51.555703 97.57531 43.500864 110.882693 43.500864 C 117.254746 43.500864 122.739641 43.958525 124.337936 44.176794 L 124.337936 59.652788 L 115.100218 59.652788 C 107.869169 59.652788 106.468021 63.060605 106.468021 68.066716 L 106.468021 79.092833 L 123.732414 79.092833 L 121.486354 96.392431 L 106.468021 96.392431 L 106.468021 139.750561 L 123.6268 139.750561 C 132.604003 139.750561 139.750561 132.604003 139.750561 123.6268 L 139.750561 37.621676 C 139.750561 28.651514 132.604003 21.497916 123.6268 21.497916 L 37.621676 21.497916 C 28.651514 21.497916 21.497916 28.651514 21.497916 37.621676 Z M 21.497916 37.621676 " transform="matrix(0.554791,0,0,0.554791,0.288,0.288)"/>
<path style=" stroke:none;fill-rule:nonzero;fill:rgb(0%,0%,0%);fill-opacity:1;" d="M 21.160156 6.253906 C 12.960938 6.253906 6.253906 12.960938 6.253906 21.160156 L 6.253906 68.875 C 6.253906 77.074219 12.960938 83.785156 21.160156 83.785156 L 68.875 83.785156 C 77.074219 83.785156 83.785156 77.074219 83.785156 68.875 L 83.785156 21.160156 C 83.785156 12.960938 77.074219 6.253906 68.875 6.253906 Z M 21.160156 12.214844 L 68.875 12.214844 C 73.855469 12.214844 77.820312 16.183594 77.820312 21.160156 L 77.820312 68.875 C 77.820312 73.855469 73.855469 77.820312 68.875 77.820312 L 59.355469 77.820312 L 59.355469 53.765625 L 67.6875 53.765625 L 68.933594 44.167969 L 59.355469 44.167969 L 59.355469 38.050781 C 59.355469 35.273438 60.132812 33.382812 64.144531 33.382812 L 69.269531 33.382812 L 69.269531 24.796875 C 68.382812 24.675781 65.339844 24.421875 61.804688 24.421875 C 54.421875 24.421875 49.375 28.890625 49.375 37.097656 L 49.375 44.167969 L 42.035156 44.144531 L 42.035156 53.742188 L 49.375 53.765625 L 49.375 77.820312 L 21.160156 77.820312 C 16.183594 77.820312 12.214844 73.855469 12.214844 68.875 L 12.214844 21.160156 C 12.214844 16.183594 16.183594 12.214844 21.160156 12.214844 Z M 21.160156 12.214844 "/>
</g>
</svg>
