<?xml version="1.0" encoding="UTF-8"?>
<svg xmlns="http://www.w3.org/2000/svg" xmlns:xlink="http://www.w3.org/1999/xlink" viewBox="0 0 48 48" width="48px" height="48px">
<g id="surface85313450">
<path style="fill-rule:nonzero;fill:rgb(0%,0%,0%);fill-opacity:1;stroke-width:1;stroke-linecap:butt;stroke-linejoin:round;stroke:rgb(80.000001%,80.000001%,80.000001%);stroke-opacity:1;stroke-miterlimit:10;" d="M 123.6268 10.746395 C 138.412782 10.746395 150.495041 22.842736 150.495041 37.628717 L 150.495041 123.6268 C 150.495041 138.412782 138.412782 150.495041 123.6268 150.495041 L 37.628717 150.495041 C 22.842736 150.495041 10.746395 138.412782 10.746395 123.6268 L 10.746395 37.628717 C 10.746395 22.842736 22.842736 10.746395 37.628717 10.746395 Z M 21.504956 37.628717 L 21.504956 123.6268 C 21.504956 132.596962 28.644473 139.750561 37.628717 139.750561 L 88.478411 139.750561 L 88.478411 96.392431 L 75.255519 96.350185 L 75.255519 79.043546 L 88.478411 79.085792 L 88.478411 66.341684 C 88.478411 51.555703 97.57531 43.500864 110.882693 43.500864 C 117.261787 43.500864 122.739641 43.965566 124.344977 44.176794 L 124.344977 59.652788 L 115.107259 59.652788 C 107.869169 59.652788 106.475062 63.060605 106.475062 68.073756 L 106.475062 79.085792 L 123.725374 79.085792 L 121.486354 96.392431 L 106.475062 96.392431 L 106.475062 139.750561 L 123.6268 139.750561 C 132.596962 139.750561 139.750561 132.596962 139.750561 123.6268 L 139.750561 37.628717 C 139.750561 28.644473 132.596962 21.504956 123.6268 21.504956 L 37.628717 21.504956 C 28.644473 21.504956 21.504956 28.644473 21.504956 37.628717 Z M 21.504956 37.628717 " transform="matrix(0.277395,0,0,0.277395,0.144,0.144)"/>
<path style=" stroke:none;fill-rule:nonzero;fill:rgb(0%,0%,0%);fill-opacity:1;" d="M 10.582031 3.125 C 6.480469 3.125 3.125 6.480469 3.125 10.582031 L 3.125 34.4375 C 3.125 38.539062 6.480469 41.890625 10.582031 41.890625 L 34.4375 41.890625 C 38.539062 41.890625 41.890625 38.539062 41.890625 34.4375 L 41.890625 10.582031 C 41.890625 6.480469 38.539062 3.125 34.4375 3.125 Z M 10.582031 6.109375 L 34.4375 6.109375 C 36.925781 6.109375 38.910156 8.089844 38.910156 10.582031 L 38.910156 34.4375 C 38.910156 36.925781 36.925781 38.910156 34.4375 38.910156 L 29.679688 38.910156 L 29.679688 26.882812 L 33.84375 26.882812 L 34.464844 22.082031 L 29.679688 22.082031 L 29.679688 19.027344 C 29.679688 17.636719 30.066406 16.691406 32.074219 16.691406 L 34.636719 16.691406 L 34.636719 12.398438 C 34.191406 12.339844 32.671875 12.210938 30.902344 12.210938 C 27.210938 12.210938 24.6875 14.445312 24.6875 18.546875 L 24.6875 22.082031 L 21.019531 22.070312 L 21.019531 26.871094 L 24.6875 26.882812 L 24.6875 38.910156 L 10.582031 38.910156 C 8.089844 38.910156 6.109375 36.925781 6.109375 34.4375 L 6.109375 10.582031 C 6.109375 8.089844 8.089844 6.109375 10.582031 6.109375 Z M 10.582031 6.109375 "/>
</g>
</svg>
