<svg width="1050" height="31" viewBox="0 0 1050 31" fill="none" xmlns="http://www.w3.org/2000/svg">
<path d="M1.25 21.7147C17.0067 26.8677 53.9561 12.1581 71.0621 13.1058C95.8962 14.4817 121.107 14.0108 145.973 13.6827C179.26 13.2435 212.143 13.1844 245.425 14.5259C264.082 15.2778 282.809 16.3454 301.493 15.9459C317.06 15.6131 332.545 15.0513 348.113 15.7241C358.393 16.1683 368.928 16.6227 379.176 15.5465C389.768 14.4343 399.705 10.8886 410.085 8.93438C437.377 3.79616 467.088 0.00349969 495.059 2.10032C523.434 4.22745 551.209 9.68886 579.725 10.887C596.794 11.6041 614.116 15.0876 631.222 14.3484C646.856 13.6727 662.242 11.4189 677.945 11.3307C700.758 11.2027 723.247 13.5875 745.924 15.4134C757.229 16.3236 779.461 18.8723 788.488 16.3897C799.992 13.2262 809.347 14.2985 821.194 16.1234C829.33 17.3765 838.993 19.182 846.507 22.1587C859.496 27.304 874.396 28.6512 888.506 28.8596C914.84 29.2487 941.108 28.211 967.421 28.1052C975.138 28.0742 982.74 28.0989 990.423 27.484C997.134 26.9469 1002.65 24.9391 1009.06 23.3569C1021.61 20.2569 1035.8 21.7149 1048.75 21.7149" stroke="black" stroke-width="2.4" stroke-linecap="round"/>
</svg>
