<svg width="956" height="17" viewBox="0 0 956 17" fill="none" xmlns="http://www.w3.org/2000/svg">
<path d="M1.64062 8.58768C79.3876 6.80661 154.875 1.48225 232.63 2.04085C268.143 2.29598 308.316 2.04085 341.736 8.59239C365.017 13.1564 392.602 9.06572 417.722 15.2232C421.817 16.227 424.725 14.3379 428.861 13.5915C449.374 9.88967 474.913 14.1719 495.5 15.2232C551.168 18.0659 606.049 -1.19296 663.646 8.59239C704.183 8.64163 743.617 7.28069 784.141 8.58768C802.813 9.18993 813.641 8.58768 835.641 8.58768C852 8.58768 875.283 13.3113 895 13.5371C905.231 13.6543 944.455 5.89001 954.36 8.58768" stroke="black" stroke-width="2.4" stroke-linecap="round"/>
</svg>
